# xmcd
#
# Track frame offsets:
#	150
#	49748
#	87351
#	139352
#	177914
#	221349
#	263153
#
# Disc length: 3716 seconds
#
# Revision: 1
# Processed by: cddbd v1.5.2PL0 Copyright (c) Steve Scherf et al.
# Submitted via: audiograbber 1.83.01
#
DISCID=620e8207
DTITLE=Kempowski, Walter - Alles umsonst - CD 9
DYEAR=1900
DGENRE=
TTITLE0=CD 9 - Track  1
TTITLE1=CD 9 - Track  2
TTITLE2=CD 9 - Track  3
TTITLE3=CD 9 - Track  4
TTITLE4=CD 9 - Track  5
TTITLE5=CD 9 - Track  6
TTITLE6=CD 9 - Track  7
EXTD=
EXTT0=
EXTT1=
EXTT2=
EXTT3=
EXTT4=
EXTT5=
EXTT6=
PLAYORDER=
